<?xml version="1.0" encoding="utf-8"?>
<!-- Generator: Adobe Illustrator 21.0.0, SVG Export Plug-In . SVG Version: 6.00 Build 0)  -->
<svg version="1.1" id="Camada_1" xmlns="http://www.w3.org/2000/svg" xmlns:xlink="http://www.w3.org/1999/xlink" x="0px" y="0px"
	 viewBox="0 0 546.1 114" style="enable-background:new 0 0 546.1 114;" xml:space="preserve">
<style type="text/css">
	.st0{fill:#000001;stroke:#FFFFFF;stroke-miterlimit:10;}
	.st1{fill:none;stroke:#FFFFFF;stroke-width:2.973;stroke-miterlimit:10;}
	.st2{fill:none;stroke:#FFFFFF;stroke-width:1.836;stroke-miterlimit:10;}
	.st3{fill:none;stroke:#FFFFFF;stroke-width:1.134;stroke-miterlimit:10;}
	.st4{fill:none;stroke:#FFFFFF;stroke-width:0.7;stroke-miterlimit:10;}
	.st5{fill:#FFFFFF;}
</style>
<path class="st0" d="M70.3,95.6c-13,0-23.7-10.6-23.7-23.7c0-13,10.6-23.7,23.7-23.7c13,0,23.7,10.6,23.7,23.7
	C94,84.9,83.4,95.6,70.3,95.6 M70.3,49.5c-12.4,0-22.4,10.1-22.4,22.4c0,12.4,10.1,22.4,22.4,22.4c12.4,0,22.4-10.1,22.4-22.4
	C92.7,59.5,82.7,49.5,70.3,49.5"/>
<path class="st1" d="M70.3,95.6c-13,0-23.7-10.6-23.7-23.7c0-13,10.6-23.7,23.7-23.7c13,0,23.7,10.6,23.7,23.7
	C94,84.9,83.4,95.6,70.3,95.6z M70.3,49.5c-12.4,0-22.4,10.1-22.4,22.4c0,12.4,10.1,22.4,22.4,22.4c12.4,0,22.4-10.1,22.4-22.4
	C92.7,59.5,82.7,49.5,70.3,49.5z"/>
<path class="st0" d="M70.3,110.8c-20.9,0-37.9-17-37.9-37.9S49.4,35,70.3,35s37.9,17,37.9,37.9C108.3,93.8,91.3,110.8,70.3,110.8
	 M70.3,36.2c-20.2,0-36.7,16.5-36.7,36.7s16.5,36.7,36.7,36.7S107,93.1,107,72.9S90.6,36.2,70.3,36.2"/>
<path class="st1" d="M70.3,110.8c-20.9,0-37.9-17-37.9-37.9S49.4,35,70.3,35s37.9,17,37.9,37.9C108.3,93.8,91.3,110.8,70.3,110.8z
	 M70.3,36.2c-20.2,0-36.7,16.5-36.7,36.7s16.5,36.7,36.7,36.7S107,93.1,107,72.9S90.6,36.2,70.3,36.2z"/>
<path class="st0" d="M70.2,82.5c-13,0-23.7-10.6-23.7-23.7c0-13,10.6-23.7,23.7-23.7c13,0,23.7,10.6,23.7,23.7
	C93.9,71.9,83.3,82.5,70.2,82.5 M70.2,36.5c-12.4,0-22.4,10.1-22.4,22.4c0,12.4,10.1,22.4,22.4,22.4c12.4,0,22.4-10.1,22.4-22.4
	C92.6,46.5,82.6,36.5,70.2,36.5"/>
<path class="st1" d="M70.2,82.5c-13,0-23.7-10.6-23.7-23.7c0-13,10.6-23.7,23.7-23.7c13,0,23.7,10.6,23.7,23.7
	C93.9,71.9,83.3,82.5,70.2,82.5z M70.2,36.5c-12.4,0-22.4,10.1-22.4,22.4c0,12.4,10.1,22.4,22.4,22.4c12.4,0,22.4-10.1,22.4-22.4
	C92.6,46.5,82.6,36.5,70.2,36.5z"/>
<path class="st0" d="M82.8,102.7c-13,0-23.7-10.6-23.7-23.7c0-13,10.6-23.7,23.7-23.7c13,0,23.7,10.6,23.7,23.7
	C106.4,92.1,95.8,102.7,82.8,102.7 M82.8,56.6c-12.4,0-22.4,10.1-22.4,22.4c0,12.4,10.1,22.4,22.4,22.4c12.4,0,22.4-10.1,22.4-22.4
	C105.2,66.7,95.1,56.6,82.8,56.6"/>
<path class="st1" d="M82.8,102.7c-13,0-23.7-10.6-23.7-23.7c0-13,10.6-23.7,23.7-23.7c13,0,23.7,10.6,23.7,23.7
	C106.4,92.1,95.8,102.7,82.8,102.7z M82.8,56.6c-12.4,0-22.4,10.1-22.4,22.4c0,12.4,10.1,22.4,22.4,22.4c12.4,0,22.4-10.1,22.4-22.4
	C105.2,66.7,95.1,56.6,82.8,56.6z"/>
<path class="st0" d="M57.6,102.7C44.6,102.7,34,92.1,34,79c0-13,10.6-23.7,23.7-23.7S81.3,66,81.3,79
	C81.3,92.1,70.7,102.7,57.6,102.7 M57.6,56.6c-12.4,0-22.4,10.1-22.4,22.4c0,12.4,10.1,22.4,22.4,22.4S80,91.4,80,79
	C80,66.7,70,56.6,57.6,56.6"/>
<path class="st1" d="M57.6,102.7C44.6,102.7,34,92.1,34,79c0-13,10.6-23.7,23.7-23.7S81.3,66,81.3,79
	C81.3,92.1,70.7,102.7,57.6,102.7z M57.6,56.6c-12.4,0-22.4,10.1-22.4,22.4c0,12.4,10.1,22.4,22.4,22.4S80,91.4,80,79
	C80,66.7,70,56.6,57.6,56.6z"/>
<path class="st0" d="M112.3,39.1c-8.1,0-14.6-6.6-14.6-14.6c0-8.1,6.6-14.6,14.6-14.6c8.1,0,14.6,6.6,14.6,14.6
	S120.4,39.1,112.3,39.1 M112.3,10.6c-7.6,0-13.8,6.2-13.8,13.8s6.2,13.8,13.8,13.8c7.6,0,13.8-6.2,13.8-13.8
	C126.2,16.8,120,10.6,112.3,10.6"/>
<path class="st2" d="M112.3,39.1c-8.1,0-14.6-6.6-14.6-14.6c0-8.1,6.6-14.6,14.6-14.6c8.1,0,14.6,6.6,14.6,14.6
	S120.4,39.1,112.3,39.1z M112.3,10.6c-7.6,0-13.8,6.2-13.8,13.8s6.2,13.8,13.8,13.8c7.6,0,13.8-6.2,13.8-13.8
	C126.2,16.8,120,10.6,112.3,10.6z"/>
<path class="st0" d="M112.3,48.5c-12.9,0-23.4-10.5-23.4-23.4S99.4,1.7,112.3,1.7s23.4,10.5,23.4,23.4
	C135.8,38,125.2,48.5,112.3,48.5 M112.3,2.4c-12.5,0-22.7,10.2-22.7,22.7s10.2,22.7,22.7,22.7S135,37.6,135,25.1
	S124.8,2.4,112.3,2.4"/>
<path class="st2" d="M112.3,48.5c-12.9,0-23.4-10.5-23.4-23.4S99.4,1.7,112.3,1.7s23.4,10.5,23.4,23.4
	C135.8,38,125.2,48.5,112.3,48.5z M112.3,2.4c-12.5,0-22.7,10.2-22.7,22.7s10.2,22.7,22.7,22.7S135,37.6,135,25.1
	S124.8,2.4,112.3,2.4z"/>
<path class="st0" d="M112.3,31c-8.1,0-14.6-6.6-14.6-14.6c0-8.1,6.6-14.6,14.6-14.6c8.1,0,14.6,6.6,14.6,14.6
	C126.9,24.5,120.3,31,112.3,31 M112.3,2.6c-7.6,0-13.8,6.2-13.8,13.8s6.2,13.8,13.8,13.8c7.6,0,13.8-6.2,13.8-13.8
	C126.1,8.8,119.9,2.6,112.3,2.6"/>
<path class="st2" d="M112.3,31c-8.1,0-14.6-6.6-14.6-14.6c0-8.1,6.6-14.6,14.6-14.6c8.1,0,14.6,6.6,14.6,14.6
	C126.9,24.5,120.3,31,112.3,31z M112.3,2.6c-7.6,0-13.8,6.2-13.8,13.8s6.2,13.8,13.8,13.8c7.6,0,13.8-6.2,13.8-13.8
	C126.1,8.8,119.9,2.6,112.3,2.6z"/>
<path class="st0" d="M120,43.5c-8.1,0-14.6-6.6-14.6-14.6c0-8.1,6.6-14.6,14.6-14.6c8.1,0,14.6,6.6,14.6,14.6S128.1,43.5,120,43.5
	 M120,15c-7.6,0-13.8,6.2-13.8,13.8s6.2,13.8,13.8,13.8c7.6,0,13.8-6.2,13.8-13.8S127.6,15,120,15"/>
<path class="st2" d="M120,43.5c-8.1,0-14.6-6.6-14.6-14.6c0-8.1,6.6-14.6,14.6-14.6c8.1,0,14.6,6.6,14.6,14.6S128.1,43.5,120,43.5z
	 M120,15c-7.6,0-13.8,6.2-13.8,13.8s6.2,13.8,13.8,13.8c7.6,0,13.8-6.2,13.8-13.8S127.6,15,120,15z"/>
<path class="st0" d="M104.5,43.5c-8.1,0-14.6-6.6-14.6-14.6c0-8.1,6.6-14.6,14.6-14.6s14.6,6.6,14.6,14.6S112.5,43.5,104.5,43.5
	 M104.5,15c-7.6,0-13.8,6.2-13.8,13.8s6.2,13.8,13.8,13.8c7.6,0,13.8-6.2,13.8-13.8S112.1,15,104.5,15"/>
<path class="st2" d="M104.5,43.5c-8.1,0-14.6-6.6-14.6-14.6c0-8.1,6.6-14.6,14.6-14.6s14.6,6.6,14.6,14.6S112.5,43.5,104.5,43.5z
	 M104.5,15c-7.6,0-13.8,6.2-13.8,13.8s6.2,13.8,13.8,13.8c7.6,0,13.8-6.2,13.8-13.8S112.1,15,104.5,15z"/>
<path class="st0" d="M16.6,85.8c-5,0-9-4-9-9s4-9,9-9s9,4,9,9C25.6,81.7,21.6,85.8,16.6,85.8 M16.6,68.2c-4.7,0-8.5,3.8-8.5,8.5
	s3.8,8.5,8.5,8.5s8.5-3.8,8.5-8.5C25.2,72,21.3,68.2,16.6,68.2"/>
<path class="st3" d="M16.6,85.8c-5,0-9-4-9-9s4-9,9-9s9,4,9,9C25.6,81.7,21.6,85.8,16.6,85.8z M16.6,68.2c-4.7,0-8.5,3.8-8.5,8.5
	s3.8,8.5,8.5,8.5s8.5-3.8,8.5-8.5C25.2,72,21.3,68.2,16.6,68.2z"/>
<path class="st0" d="M16.6,91.6c-8,0-14.5-6.5-14.5-14.5s6.5-14.5,14.5-14.5s14.5,6.5,14.5,14.5S24.6,91.6,16.6,91.6 M16.6,63.1
	c-7.7,0-14,6.3-14,14s6.3,14,14,14s14-6.3,14-14S24.3,63.1,16.6,63.1"/>
<path class="st3" d="M16.6,91.6c-8,0-14.5-6.5-14.5-14.5s6.5-14.5,14.5-14.5s14.5,6.5,14.5,14.5S24.6,91.6,16.6,91.6z M16.6,63.1
	c-7.7,0-14,6.3-14,14s6.3,14,14,14s14-6.3,14-14S24.3,63.1,16.6,63.1z"/>
<path class="st0" d="M16.6,80.8c-5,0-9-4-9-9s4-9,9-9s9,4,9,9S21.5,80.8,16.6,80.8 M16.6,63.2c-4.7,0-8.5,3.8-8.5,8.5
	s3.8,8.5,8.5,8.5s8.5-3.8,8.5-8.5C25.1,67.1,21.3,63.2,16.6,63.2"/>
<path class="st3" d="M16.6,80.8c-5,0-9-4-9-9s4-9,9-9s9,4,9,9S21.5,80.8,16.6,80.8z M16.6,63.2c-4.7,0-8.5,3.8-8.5,8.5
	s3.8,8.5,8.5,8.5s8.5-3.8,8.5-8.5C25.1,67.1,21.3,63.2,16.6,63.2z"/>
<path class="st0" d="M21.3,88.5c-5,0-9-4-9-9s4-9,9-9s9,4,9,9C30.4,84.4,26.3,88.5,21.3,88.5 M21.3,70.9c-4.7,0-8.5,3.8-8.5,8.5
	s3.8,8.5,8.5,8.5s8.5-3.8,8.5-8.5C29.9,74.8,26.1,70.9,21.3,70.9"/>
<path class="st3" d="M21.3,88.5c-5,0-9-4-9-9s4-9,9-9s9,4,9,9C30.4,84.4,26.3,88.5,21.3,88.5z M21.3,70.9c-4.7,0-8.5,3.8-8.5,8.5
	s3.8,8.5,8.5,8.5s8.5-3.8,8.5-8.5C29.9,74.8,26.1,70.9,21.3,70.9z"/>
<path class="st0" d="M11.8,88.5c-5,0-9-4-9-9s4-9,9-9s9,4,9,9C20.8,84.4,16.7,88.5,11.8,88.5 M11.8,70.9c-4.7,0-8.5,3.8-8.5,8.5
	s3.8,8.5,8.5,8.5s8.5-3.8,8.5-8.5C20.3,74.8,16.5,70.9,11.8,70.9"/>
<path class="st3" d="M11.8,88.5c-5,0-9-4-9-9s4-9,9-9s9,4,9,9C20.8,84.4,16.7,88.5,11.8,88.5z M11.8,70.9c-4.7,0-8.5,3.8-8.5,8.5
	s3.8,8.5,8.5,8.5s8.5-3.8,8.5-8.5C20.3,74.8,16.5,70.9,11.8,70.9z"/>
<path class="st0" d="M108.3,108.4c-3.1,0-5.6-2.5-5.6-5.6s2.5-5.6,5.6-5.6s5.6,2.5,5.6,5.6C113.8,105.9,111.3,108.4,108.3,108.4
	 M108.3,97.6c-2.9,0-5.3,2.4-5.3,5.3s2.4,5.3,5.3,5.3s5.3-2.4,5.3-5.3C113.5,99.9,111.2,97.6,108.3,97.6"/>
<path class="st4" d="M108.3,108.4c-3.1,0-5.6-2.5-5.6-5.6s2.5-5.6,5.6-5.6s5.6,2.5,5.6,5.6C113.8,105.9,111.3,108.4,108.3,108.4z
	 M108.3,97.6c-2.9,0-5.3,2.4-5.3,5.3s2.4,5.3,5.3,5.3s5.3-2.4,5.3-5.3C113.5,99.9,111.2,97.6,108.3,97.6z"/>
<path class="st0" d="M108.3,112c-4.9,0-8.9-4-8.9-8.9s4-8.9,8.9-8.9s8.9,4,8.9,8.9C117.2,108,113.2,112,108.3,112 M108.3,94.4
	c-4.8,0-8.6,3.9-8.6,8.6c0,4.8,3.9,8.6,8.6,8.6c4.8,0,8.6-3.9,8.6-8.6S113,94.4,108.3,94.4"/>
<path class="st4" d="M108.3,112c-4.9,0-8.9-4-8.9-8.9s4-8.9,8.9-8.9s8.9,4,8.9,8.9C117.2,108,113.2,112,108.3,112z M108.3,94.4
	c-4.8,0-8.6,3.9-8.6,8.6c0,4.8,3.9,8.6,8.6,8.6c4.8,0,8.6-3.9,8.6-8.6S113,94.4,108.3,94.4z"/>
<path class="st0" d="M108.3,105.3c-3.1,0-5.6-2.5-5.6-5.6s2.5-5.6,5.6-5.6s5.6,2.5,5.6,5.6C113.8,102.8,111.3,105.3,108.3,105.3
	 M108.3,94.5c-2.9,0-5.3,2.4-5.3,5.3s2.4,5.3,5.3,5.3s5.3-2.4,5.3-5.3S111.2,94.5,108.3,94.5"/>
<path class="st4" d="M108.3,105.3c-3.1,0-5.6-2.5-5.6-5.6s2.5-5.6,5.6-5.6s5.6,2.5,5.6,5.6C113.8,102.8,111.3,105.3,108.3,105.3z
	 M108.3,94.5c-2.9,0-5.3,2.4-5.3,5.3s2.4,5.3,5.3,5.3s5.3-2.4,5.3-5.3S111.2,94.5,108.3,94.5z"/>
<path class="st0" d="M111.2,110.1c-3.1,0-5.6-2.5-5.6-5.6s2.5-5.6,5.6-5.6s5.6,2.5,5.6,5.6C116.8,107.6,114.3,110.1,111.2,110.1
	 M111.2,99.2c-2.9,0-5.3,2.4-5.3,5.3s2.4,5.3,5.3,5.3s5.3-2.4,5.3-5.3S114.1,99.2,111.2,99.2"/>
<path class="st4" d="M111.2,110.1c-3.1,0-5.6-2.5-5.6-5.6s2.5-5.6,5.6-5.6s5.6,2.5,5.6,5.6C116.8,107.6,114.3,110.1,111.2,110.1z
	 M111.2,99.2c-2.9,0-5.3,2.4-5.3,5.3s2.4,5.3,5.3,5.3s5.3-2.4,5.3-5.3S114.1,99.2,111.2,99.2z"/>
<path class="st0" d="M105.3,110.1c-3.1,0-5.6-2.5-5.6-5.6s2.5-5.6,5.6-5.6s5.6,2.5,5.6,5.6C110.8,107.6,108.4,110.1,105.3,110.1
	 M105.3,99.2c-2.9,0-5.3,2.4-5.3,5.3s2.4,5.3,5.3,5.3s5.3-2.4,5.3-5.3C110.6,101.6,108.2,99.2,105.3,99.2"/>
<path class="st4" d="M105.3,110.1c-3.1,0-5.6-2.5-5.6-5.6s2.5-5.6,5.6-5.6s5.6,2.5,5.6,5.6C110.8,107.6,108.4,110.1,105.3,110.1z
	 M105.3,99.2c-2.9,0-5.3,2.4-5.3,5.3s2.4,5.3,5.3,5.3s5.3-2.4,5.3-5.3C110.6,101.6,108.2,99.2,105.3,99.2z"/>
<g>
	<path class="st5" d="M511.6,72.9V33.3h-4.9V55c-6.5-12.8-19.9-21.6-35.2-21.6c-8.6,0-16.5,2.7-23,7.4c-8.8-5-17.8-7.4-27.4-7.4
		c-13.7,0-24.8,5.2-28.8,7.4c-5.9-4.7-14.2-7.4-23-7.4c-17,0-31.5,10.8-37,25.9c-5.5-15.1-20.1-26-37.1-26
		c-16.9,0-31.4,10.7-37,25.7c-5.6-15-20.1-25.7-37-25.7c-6.5,0-12.9,1.6-18.5,4.6c-5.7-3-12.1-4.6-18.5-4.6
		c-21.8,0-39.5,17.7-39.5,39.5l0,0v39.5h5v-37h34.5v-4.9h-34.5c1.3-17.9,16.3-32.2,34.5-32.2c5.6,0,11.1,1.4,16,3.9v70.2h5V94.5
		c5-2.6,10.5-3.8,16.1-3.8c14.1,0.1,26.7,8.6,31.9,21.7l4.5-1.8c-1.7-4.3-4.1-8.2-7.1-11.5c3.2-3.5,5.7-7.6,7.3-11.9
		c4,12.2,13.2,21.7,25.2,25.2l1.4-4.7c-8.6-2.6-15.6-8.7-19.7-16.8c6.9-10.1,18.1-16.1,30.4-16.1s23.5,6,30.4,16.1
		c-4.3,8.3-11.5,14.6-20.3,16.8l1.2,4.7c12.3-3.1,21.8-12.8,26-25.4c5.7,14.9,20.1,25.5,36.9,25.5c10.1,0,20.7-4.3,27.6-11.2
		l-3.4-3.5c-6.1,6-15.3,9.8-24.2,9.8c-19.1,0-34.6-15.5-34.6-34.6c0-19.2,15.5-34.8,34.6-34.8c8.3,0,16,2.7,21.1,7.3l1.4,1.2l1.6-1
		c0.1-0.1,11-6.8,25.3-7.5v74.1h4.9v-74c7.2,0.3,14.1,2.2,20.8,5.8c-7.7,7.2-12.4,17.4-12.4,28.7c0,18.8,11,34.7,27.4,39.6l1.4-4.7
		c-8.6-2.6-15.6-8.7-19.7-16.8c6.9-10.1,18.2-16.1,30.4-16.1c12.2,0,23.5,6,30.4,16.1c-4.3,8.3-11.4,14.6-20.3,16.8l1.2,4.7
		c12.7-3.2,22.4-13.4,26.3-26.6c5.6,15.5,20.1,26.6,37,26.6v-4.9C527.5,107.5,512,92,511.6,72.9 M255.7,74.7L255.7,74.7
		c-0.4,7.8-3.4,15.1-8.6,20.9c-7-6.2-16.1-9.8-25.9-9.8c-5.6,0-11,1.1-16.1,3.3v-47c4.9-2.6,10.4-3.9,16-3.9
		c18.5,0,33.6,14.5,34.6,32.7V71c0,0.6,0.1,1.2,0.1,1.8C255.8,73.5,255.7,74.1,255.7,74.7 M327.8,85.7C319.9,75.8,308,70,295.2,70
		s-24.7,5.8-32.6,15.7c-1.2-3.4-1.9-7.1-2-11l0,0c0-0.6-0.1-1.3-0.1-1.9s0-1.3,0.1-1.9l0,0l0,0l0,0c1-18.2,16.1-32.7,34.6-32.7
		c19.1,0,34.6,15.5,34.6,34.6C329.8,77.3,329.1,81.7,327.8,85.7 M504,85.7c-7.9-9.9-19.8-15.7-32.6-15.7c-12.8,0-24.7,5.8-32.6,15.7
		c-1.3-4-2.1-8.3-2.1-12.9c0-19.1,15.5-34.6,34.6-34.6s34.6,15.5,34.6,34.6C506.1,77.3,505.4,81.7,504,85.7"/>
</g>
</svg>
